<?xml version="1.0" encoding="UTF-8" standalone="no"?><!-- Generator: Gravit.io --><svg xmlns="http://www.w3.org/2000/svg" xmlns:xlink="http://www.w3.org/1999/xlink" style="isolation:isolate" viewBox="0 0 16 16" width="16pt" height="16pt"><defs><clipPath id="_clipPath_ULKxMmPNSIKQeiro0PAPaiw1P1Iss580"><rect width="16" height="16"/></clipPath></defs><g clip-path="url(#_clipPath_ULKxMmPNSIKQeiro0PAPaiw1P1Iss580)"><g style="isolation:isolate"/><g style="isolation:isolate"><path d=" M 6.562 13.725 L 8.063 9.499 L 8.187 9.499 L 9.625 13.725 L 8.75 14.7 L 7.5 14.7 L 6.562 13.725 Z  M 10.375 3.313 L 8.75 7.386 L 8.75 7.548 L 11 14.223 L 10.875 14.403 L 9.375 16 L 6.875 16 L 5.375 14.403 L 5.25 14.191 L 7.5 7.548 L 7.5 7.386 L 5.875 3.371 L 5.625 3.375 L 1.375 15.234 L 0 13.678 L 0.25 13.676 L 5.625 0.025 L 5.875 0.015 L 8.063 5.273 L 8.187 5.273 L 10.375 0.006 L 10.625 0 L 15.75 13.676 L 16 13.678 L 14.625 15.155 L 10.625 3.31 L 10.375 3.313 Z " fill-rule="evenodd" fill="rgb(234,237,232)"/></g></g></svg>